<?xml version="1.0" encoding="utf-8"?>
<!-- Generator: Adobe Illustrator 24.1.1, SVG Export Plug-In . SVG Version: 6.00 Build 0)  -->
<svg version="1.1" id="Layer_1" xmlns="http://www.w3.org/2000/svg" xmlns:xlink="http://www.w3.org/1999/xlink" x="0px" y="0px"
	 viewBox="0 0 316.1 290.8" style="enable-background:new 0 0 316.1 290.8;" xml:space="preserve">
<style type="text/css">
	.st0{fill:#4F535C;}
	.st1{fill:#FFFFFF;}
</style>
<image style="overflow:visible;" width="297" height="222" xlink:href="473CB98.jpg"  transform="matrix(1 0 0 1 610.3869 26.0931)">
</image>
<g>
	<g>
		<g>
			<g>
				<polygon class="st0" points="136.9,290.8 0,290.8 139.2,0 161.4,0 				"/>
			</g>
			<polygon class="st1" points="27.1,290.8 12.8,290.8 141.3,0 143.6,0 			"/>
			<polygon class="st1" points="151.4,0 153.7,0 147.7,27 144.2,27 			"/>
			<polygon class="st1" points="138.9,47.5 143.1,47.5 132.9,93.9 126.7,93.9 			"/>
			<polygon class="st1" points="118.2,125.9 125.8,125.9 111.7,189.4 101.5,189.4 			"/>
			<polygon class="st1" points="96.1,210.2 107.1,210.2 92.4,276.4 78.7,276.4 			"/>
		</g>
		<g>
			<g>
				<polygon class="st0" points="179.2,290.8 316.1,290.8 190.4,0 168.2,0 				"/>
			</g>
			<polygon class="st1" points="289,290.8 303.3,290.8 188.3,0 186,0 			"/>
			<polygon class="st1" points="178.3,0 176,0 180.7,27 184.1,27 			"/>
			<polygon class="st1" points="188.6,47.5 184.3,47.5 192.4,93.9 198.6,93.9 			"/>
			<polygon class="st1" points="205.5,125.9 198,125.9 209.1,189.4 219.3,189.4 			"/>
			<polygon class="st1" points="223.8,210.2 212.8,210.2 224.4,276.4 238.1,276.4 			"/>
		</g>
	</g>
</g>
</svg>
